<?xml version="1.0" encoding="UTF-8"?>
<svg height="16px" viewBox="0 0 16 16" width="16px" xmlns="http://www.w3.org/2000/svg" xmlns:xlink="http://www.w3.org/1999/xlink">
    <filter id="a" height="100%" width="100%" x="0%" y="0%">
        <feColorMatrix in="SourceGraphic" type="matrix" values="0 0 0 0 1 0 0 0 0 1 0 0 0 0 1 0 0 0 1 0"/>
    </filter>
    <mask id="b">
        <g filter="url(#a)">
            <rect fill-opacity="0.1" height="16" width="16"/>
        </g>
    </mask>
    <clipPath id="c">
        <rect height="152" width="192"/>
    </clipPath>
    <mask id="d">
        <g filter="url(#a)">
            <rect fill-opacity="0.3" height="16" width="16"/>
        </g>
    </mask>
    <clipPath id="e">
        <rect height="152" width="192"/>
    </clipPath>
    <mask id="f">
        <g filter="url(#a)">
            <rect fill-opacity="0.3" height="16" width="16"/>
        </g>
    </mask>
    <clipPath id="g">
        <rect height="152" width="192"/>
    </clipPath>
    <g clip-path="url(#c)" mask="url(#b)" transform="matrix(1 0 0 1 -168 -16)">
        <path d="m 72.277344 26.675781 c -28.332032 0 -51.300782 22.964844 -51.300782 51.296875 c 0.011719 0.371094 0.023438 0.742188 0.039063 1.113282 c 0.433594 -28.007813 23.25 -50.492188 51.261719 -50.511719 c 27.886718 0.015625 50.65625 22.304687 51.261718 50.1875 c 0.015626 -0.261719 0.027344 -0.527344 0.039063 -0.789063 c 0 -28.332031 -22.96875 -51.296875 -51.300781 -51.296875 z m 0 0"/>
    </g>
    <g clip-path="url(#e)" mask="url(#d)" transform="matrix(1 0 0 1 -168 -16)">
        <path d="m 119.871094 78.308594 v 0.210937 c 0 0.574219 -0.464844 1.035157 -1.035156 1.035157 h -6.546876 c -0.570312 0 -1.035156 -0.460938 -1.035156 -1.035157 v -0.210937 c 0 -0.574219 0.464844 -1.035156 1.035156 -1.035156 h 6.546876 c 0.570312 0 1.035156 0.460937 1.035156 1.035156 z m 0 0"/>
        <path d="m 33.664062 78.308594 v 0.210937 c 0 0.574219 -0.464843 1.035157 -1.039062 1.035157 h -6.542969 c -0.570312 0 -1.035156 -0.460938 -1.035156 -1.035157 v -0.210937 c 0 -0.574219 0.464844 -1.035156 1.035156 -1.035156 h 6.542969 c 0.574219 0 1.039062 0.460937 1.039062 1.035156 z m 0 0"/>
        <path d="m 72.792969 41.003906 h -0.59375 c -0.746094 0 -1.347657 -0.601562 -1.347657 -1.34375 v -8.507812 c 0 -0.746094 0.601563 -1.347656 1.347657 -1.347656 h 0.59375 c 0.746093 0 1.347656 0.601562 1.347656 1.347656 v 8.507812 c 0 0.742188 -0.601563 1.34375 -1.347656 1.34375 z m 0 0"/>
        <path d="m 72.601562 125.84375 h -0.210937 c -0.574219 0 -1.035156 -0.464844 -1.035156 -1.035156 v -6.542969 c 0 -0.574219 0.460937 -1.039063 1.035156 -1.039063 h 0.210937 c 0.574219 0 1.035157 0.464844 1.035157 1.039063 v 6.542969 c 0 0.570312 -0.460938 1.035156 -1.035157 1.035156 z m 0 0"/>
    </g>
    <g clip-path="url(#g)" mask="url(#f)" transform="matrix(1 0 0 1 -168 -16)">
        <path d="m 102.617188 49.910156 c 0.792968 0.804688 1.042968 1.941406 0.074218 2.933594 l -32.230468 32.898438 c -1.460938 1.488281 -3.761719 0.542968 -4.734376 -0.445313 c -0.976562 -0.992187 -2.109374 -3.542969 -0.550781 -4.925781 l 34.507813 -30.582032 c 1.039062 -0.921874 2.175781 -0.652343 2.933594 0.121094 z m 0 0"/>
    </g>
    <path d="m 8 1.5 c -0.261719 0 -0.472656 0.175781 -0.472656 0.394531 v 1.996094 c 0 0.214844 0.210937 0.394531 0.472656 0.394531 s 0.476562 -0.179687 0.472656 -0.394531 v -1.996094 c 0.003906 -0.21875 -0.210937 -0.394531 -0.472656 -0.394531 z m 0 0"/>
    <path d="m 8 0 c -4.402344 0 -8 3.589844 -8 8 s 3.597656 8 8 8 s 8 -3.589844 8 -8 s -3.597656 -8 -8 -8 z m 0 2.015625 c 3.328125 0 6 2.671875 6 5.984375 s -2.671875 5.984375 -6 5.984375 s -6 -2.671875 -6 -5.984375 s 2.671875 -5.984375 6 -5.984375 z m 0 0"/>
    <path d="m 11.1875 4.417969 c -0.148438 0.015625 -0.285156 0.078125 -0.390625 0.183593 l -3.929687 3.242188 c -0.433594 0.4375 -0.34375 1.089844 0.089843 1.527344 c 0.4375 0.4375 1.054688 0.488281 1.488281 0.050781 l 3.242188 -3.933594 c 0.246094 -0.246093 0.246094 -0.640625 0 -0.886719 c -0.132812 -0.132812 -0.316406 -0.199218 -0.5 -0.183593 z m 0 0"/>
</svg>
