<?xml version="1.0" encoding="UTF-8"?>
<svg height="128px" viewBox="0 0 128 128" width="128px" xmlns="http://www.w3.org/2000/svg" xmlns:xlink="http://www.w3.org/1999/xlink">
    <defs>
        <filter id="a" height="100%" width="100%" x="0%" y="0%">
            <feColorMatrix in="SourceGraphic" type="matrix" values="0 0 0 0 1 0 0 0 0 1 0 0 0 0 1 0 0 0 1 0"/>
        </filter>
        <mask id="b">
            <g filter="url(#a)">
                <rect fill-opacity="0.1" height="128" width="128"/>
            </g>
        </mask>
        <mask id="c">
            <g filter="url(#a)">
                <rect fill-opacity="0.3" height="128" width="128"/>
            </g>
        </mask>
        <linearGradient id="d" gradientTransform="matrix(0.38975 0.449607 -0.449607 0.38975 82.540353 -68.229486)" gradientUnits="userSpaceOnUse" x1="143.607788" x2="141.011398" y1="139.418365" y2="95.803307">
            <stop offset="0" stop-color="#b3b3b3"/>
            <stop offset="1" stop-color="#e6e6e6"/>
        </linearGradient>
        <linearGradient id="e" gradientTransform="matrix(0.38975 0.449607 -0.449607 0.38975 82.540353 -68.229486)" gradientUnits="userSpaceOnUse" x1="102.540459" x2="144.827225" y1="86.852005" y2="185.409195">
            <stop offset="0" stop-color="#ffffff" stop-opacity="0.7251"/>
            <stop offset="1" stop-color="#ffffff" stop-opacity="0"/>
        </linearGradient>
        <mask id="f">
            <g filter="url(#a)">
                <rect fill-opacity="0.1" height="128" width="128"/>
            </g>
        </mask>
        <clipPath id="g">
            <rect height="39" width="41"/>
        </clipPath>
        <g id="h" clip-path="url(#g)">
            <path d="m 8.40625 -21.710938 c -28.535156 0 -51.667969 23.132813 -51.667969 51.667969 c 0.007813 0.375 0.023438 0.75 0.039063 1.121094 c 0.433594 -28.210937 23.417968 -50.855469 51.628906 -50.875 c 28.089844 0.015625 51.019531 22.464844 51.628906 50.546875 c 0.015625 -0.261719 0.03125 -0.527344 0.039063 -0.792969 c 0 -28.535156 -23.132813 -51.667969 -51.667969 -51.667969 z m 0 0"/>
        </g>
        <mask id="i">
            <g filter="url(#a)">
                <rect fill-opacity="0.3" height="128" width="128"/>
            </g>
        </mask>
        <clipPath id="j">
            <rect height="39" width="41"/>
        </clipPath>
        <g id="k" clip-path="url(#j)">
            <path d="m 38.878906 2.082031 c 0.796875 0.808594 1.058594 1.960938 0.074219 2.953125 l -33.195313 33.480469 c -0.984374 0.992187 -2.589843 0.964844 -3.570312 -0.03125 s -0.972656 -2.589844 0.027344 -3.570313 l 33.710937 -32.957031 c 1 -0.976562 2.191407 -0.652343 2.953125 0.125 z m 0 0"/>
        </g>
        <clipPath id="l">
            <rect height="128" width="128"/>
        </clipPath>
        <clipPath id="m">
            <rect height="128" width="128"/>
        </clipPath>
        <mask id="n">
            <g clip-path="url(#m)" filter="url(#a)">
                <g clip-path="url(#l)">
                    <path d="m 41.402344 114.628906 h 45.308594 c 0.84375 0 1.523437 0.90625 1.523437 2.035156 v 6.476563 c 0 1.125 -0.679687 2.054687 -1.523437 2.03125 l -23.046876 -0.574219 l -22.261718 0.574219 c -0.84375 0.023437 -1.523438 -0.90625 -1.523438 -2.03125 v -6.476563 c 0 -1.128906 0.679688 -2.035156 1.523438 -2.035156 z m 0 0"/>
                    <path d="m 41.453125 115 h 45.207031 c 0.84375 0 1.519532 0.808594 1.519532 1.816406 v 5.792969 c 0 1.007813 -0.675782 1.835937 -1.519532 1.816406 l -22.996094 -0.511719 l -22.210937 0.511719 c -0.839844 0.019531 -1.519531 -0.808593 -1.519531 -1.816406 v -5.792969 c 0 -1.007812 0.679687 -1.816406 1.519531 -1.816406 z m 0 0" fill="#3d3846"/>
                    <path d="m 121.746094 64.121094 c 0 31.707031 -25.703125 57.410156 -57.410156 57.410156 c -31.707032 0 -57.410157 -25.703125 -57.410157 -57.410156 c 0 -31.707032 25.703125 -57.410156 57.410157 -57.410156 c 31.707031 0 57.410156 25.703124 57.410156 57.410156 z m 0 0" fill="#d5d3cf"/>
                    <path d="m 64.335938 8.625 c 29.59375 0 53.582031 23.992188 53.582031 53.582031 v 1.914063 c 0 29.59375 -23.988281 53.582031 -53.582031 53.582031 s -53.582032 -23.988281 -53.582032 -53.582031 v -1.914063 c 0 -29.589843 23.988282 -53.582031 53.582032 -53.582031 z m 0 0" fill="#d5d3cf"/>
                    <path d="m 121.746094 62.207031 c 0 31.707031 -25.703125 57.410157 -57.410156 57.410157 c -31.707032 0 -57.410157 -25.703126 -57.410157 -57.410157 s 25.703125 -57.410156 57.410157 -57.410156 c 31.707031 0 57.410156 25.703125 57.410156 57.410156 z m 0 0" fill="#f6f5f4"/>
                    <path d="m 116.003906 62.207031 c 0 28.539063 -23.132812 51.671875 -51.667968 51.671875 c -28.535157 0 -51.667969 -23.132812 -51.667969 -51.671875 c 0 -28.535156 23.132812 -51.667969 51.667969 -51.667969 c 28.535156 0 51.667968 23.132813 51.667968 51.667969 z m 0 0" fill="#342f3d"/>
                    <path d="m 100.21875 62.207031 c 0 19.820313 -16.0625 35.886719 -35.882812 35.886719 c -19.816407 0 -35.882813 -16.066406 -35.882813 -35.886719 c 0 -19.816406 16.066406 -35.882812 35.882813 -35.882812 c 19.820312 0 35.882812 16.066406 35.882812 35.882812 z m 0 0" fill="#312b3b"/>
                    <path d="m 99.347656 62.207031 c 0 19.335938 -15.675781 35.011719 -35.011718 35.011719 c -19.335938 0 -35.007813 -15.675781 -35.007813 -35.011719 c 0 -19.332031 15.671875 -35.007812 35.007813 -35.007812 c 19.335937 0 35.011718 15.675781 35.011718 35.007812 z m 0 0" fill="#241f31"/>
                    <use mask="url(#f)" transform="matrix(1 0 0 1 55.929688 32.25)" xlink:href="#h"/>
                    <path d="m 112.15625 61.996094 v 0.214844 c 0 0.574218 -0.464844 1.042968 -1.042969 1.042968 h -6.589843 c -0.578126 0 -1.042969 -0.46875 -1.042969 -1.042968 v -0.214844 c 0 -0.574219 0.464843 -1.042969 1.042969 -1.042969 h 6.589843 c 0.578125 0 1.042969 0.46875 1.042969 1.042969 z m 0 0" fill="#e1e0de"/>
                    <path d="m 25.328125 61.996094 v 0.214844 c 0 0.574218 -0.46875 1.042968 -1.042969 1.042968 h -6.589844 c -0.578124 0 -1.046874 -0.46875 -1.046874 -1.042968 v -0.214844 c 0 -0.574219 0.46875 -1.042969 1.046874 -1.042969 h 6.589844 c 0.574219 0 1.042969 0.46875 1.042969 1.042969 z m 0 0" fill="#e1e0de"/>
                    <path d="m 64.742188 24.425781 h -0.601563 c -0.746094 0 -1.355469 -0.609375 -1.355469 -1.355469 v -8.570312 c 0 -0.75 0.609375 -1.355469 1.355469 -1.355469 h 0.601563 c 0.75 0 1.355468 0.605469 1.355468 1.355469 v 8.570312 c 0 0.746094 -0.605468 1.355469 -1.355468 1.355469 z m 0 0" fill="#f66151"/>
                    <path d="m 64.546875 109.875 h -0.210937 c -0.578126 0 -1.042969 -0.46875 -1.042969 -1.042969 v -6.59375 c 0 -0.574219 0.464843 -1.042969 1.042969 -1.042969 h 0.210937 c 0.578125 0 1.046875 0.46875 1.046875 1.042969 v 6.59375 c 0 0.574219 -0.46875 1.042969 -1.046875 1.042969 z m 0 0" fill="#e1e0de"/>
                    <use mask="url(#i)" transform="matrix(1 0 0 1 55.929688 32.25)" xlink:href="#k"/>
                    <path d="m 95.0625 31.984375 c 0.796875 0.808594 1.0625 1.964844 0.074219 2.953125 l -34.804688 34.75 c -0.988281 0.988281 -2.589843 0.96875 -3.570312 -0.027344 s -0.972657 -2.597656 0.03125 -3.570312 l 35.316406 -34.226563 c 1.003906 -0.976562 2.1875 -0.65625 2.953125 0.121094 z m 0 0" fill="url(#d)"/>
                    <path d="m 95.0625 31.984375 l -38.300781 37.675781 c -0.980469 -0.996094 -0.972657 -2.597656 0.03125 -3.570312 l 35.316406 -34.226563 c 1.003906 -0.976562 2.1875 -0.65625 2.953125 0.121094 z m 0 0" fill="url(#e)"/>
                </g>
            </g>
        </mask>
        <mask id="o">
            <g filter="url(#a)">
                <rect fill-opacity="0.8" height="128" width="128"/>
            </g>
        </mask>
        <linearGradient id="p" gradientTransform="matrix(0 0.37 -0.98462 0 295.38501 -30.360001)" gradientUnits="userSpaceOnUse" x1="300" x2="428" y1="235" y2="235">
            <stop offset="0" stop-color="#f9f06b"/>
            <stop offset="1" stop-color="#f5c211"/>
        </linearGradient>
        <clipPath id="q">
            <rect height="128" width="128"/>
        </clipPath>
        <clipPath id="r">
            <rect height="128" width="128"/>
        </clipPath>
    </defs>
    <path d="m 41.402344 114.628906 h 45.308594 c 0.84375 0 1.523437 0.90625 1.523437 2.035156 v 6.476563 c 0 1.125 -0.679687 2.054687 -1.523437 2.03125 l -23.046876 -0.574219 l -22.261718 0.574219 c -0.84375 0.023437 -1.523438 -0.90625 -1.523438 -2.03125 v -6.476563 c 0 -1.128906 0.679688 -2.035156 1.523438 -2.035156 z m 0 0"/>
    <path d="m 41.453125 115 h 45.207031 c 0.84375 0 1.519532 0.808594 1.519532 1.816406 v 5.792969 c 0 1.007813 -0.675782 1.835937 -1.519532 1.816406 l -22.996094 -0.511719 l -22.210937 0.511719 c -0.839844 0.019531 -1.519531 -0.808593 -1.519531 -1.816406 v -5.792969 c 0 -1.007812 0.679687 -1.816406 1.519531 -1.816406 z m 0 0" fill="#3d3846"/>
    <path d="m 121.746094 64.121094 c 0 31.707031 -25.703125 57.410156 -57.410156 57.410156 c -31.707032 0 -57.410157 -25.703125 -57.410157 -57.410156 c 0 -31.707032 25.703125 -57.410156 57.410157 -57.410156 c 31.707031 0 57.410156 25.703124 57.410156 57.410156 z m 0 0" fill="#d5d3cf"/>
    <path d="m 64.335938 8.625 c 29.59375 0 53.582031 23.992188 53.582031 53.582031 v 1.914063 c 0 29.59375 -23.988281 53.582031 -53.582031 53.582031 s -53.582032 -23.988281 -53.582032 -53.582031 v -1.914063 c 0 -29.589843 23.988282 -53.582031 53.582032 -53.582031 z m 0 0" fill="#d5d3cf"/>
    <path d="m 121.746094 62.207031 c 0 31.707031 -25.703125 57.410157 -57.410156 57.410157 c -31.707032 0 -57.410157 -25.703126 -57.410157 -57.410157 s 25.703125 -57.410156 57.410157 -57.410156 c 31.707031 0 57.410156 25.703125 57.410156 57.410156 z m 0 0" fill="#f6f5f4"/>
    <path d="m 116.003906 62.207031 c 0 28.539063 -23.132812 51.671875 -51.667968 51.671875 c -28.535157 0 -51.667969 -23.132812 -51.667969 -51.671875 c 0 -28.535156 23.132812 -51.667969 51.667969 -51.667969 c 28.535156 0 51.667968 23.132813 51.667968 51.667969 z m 0 0" fill="#342f3d"/>
    <path d="m 100.21875 62.207031 c 0 19.820313 -16.0625 35.886719 -35.882812 35.886719 c -19.816407 0 -35.882813 -16.066406 -35.882813 -35.886719 c 0 -19.816406 16.066406 -35.882812 35.882813 -35.882812 c 19.820312 0 35.882812 16.066406 35.882812 35.882812 z m 0 0" fill="#312b3b"/>
    <path d="m 99.347656 62.207031 c 0 19.335938 -15.675781 35.011719 -35.011718 35.011719 c -19.335938 0 -35.007813 -15.675781 -35.007813 -35.011719 c 0 -19.332031 15.671875 -35.007812 35.007813 -35.007812 c 19.335937 0 35.011718 15.675781 35.011718 35.007812 z m 0 0" fill="#241f31"/>
    <use mask="url(#b)" transform="matrix(1 0 0 1 55.929688 32.25)" xlink:href="#h"/>
    <path d="m 112.15625 61.996094 v 0.214844 c 0 0.574218 -0.464844 1.042968 -1.042969 1.042968 h -6.589843 c -0.578126 0 -1.042969 -0.46875 -1.042969 -1.042968 v -0.214844 c 0 -0.574219 0.464843 -1.042969 1.042969 -1.042969 h 6.589843 c 0.578125 0 1.042969 0.46875 1.042969 1.042969 z m 0 0" fill="#e1e0de"/>
    <path d="m 25.328125 61.996094 v 0.214844 c 0 0.574218 -0.46875 1.042968 -1.042969 1.042968 h -6.589844 c -0.578124 0 -1.046874 -0.46875 -1.046874 -1.042968 v -0.214844 c 0 -0.574219 0.46875 -1.042969 1.046874 -1.042969 h 6.589844 c 0.574219 0 1.042969 0.46875 1.042969 1.042969 z m 0 0" fill="#e1e0de"/>
    <path d="m 64.742188 24.425781 h -0.601563 c -0.746094 0 -1.355469 -0.609375 -1.355469 -1.355469 v -8.570312 c 0 -0.75 0.609375 -1.355469 1.355469 -1.355469 h 0.601563 c 0.75 0 1.355468 0.605469 1.355468 1.355469 v 8.570312 c 0 0.746094 -0.605468 1.355469 -1.355468 1.355469 z m 0 0" fill="#f66151"/>
    <path d="m 64.546875 109.875 h -0.210937 c -0.578126 0 -1.042969 -0.46875 -1.042969 -1.042969 v -6.59375 c 0 -0.574219 0.464843 -1.042969 1.042969 -1.042969 h 0.210937 c 0.578125 0 1.046875 0.46875 1.046875 1.042969 v 6.59375 c 0 0.574219 -0.46875 1.042969 -1.046875 1.042969 z m 0 0" fill="#e1e0de"/>
    <use mask="url(#c)" transform="matrix(1 0 0 1 55.929688 32.25)" xlink:href="#k"/>
    <path d="m 95.0625 31.984375 c 0.796875 0.808594 1.0625 1.964844 0.074219 2.953125 l -34.804688 34.75 c -0.988281 0.988281 -2.589843 0.96875 -3.570312 -0.027344 s -0.972657 -2.597656 0.03125 -3.570312 l 35.316406 -34.226563 c 1.003906 -0.976562 2.1875 -0.65625 2.953125 0.121094 z m 0 0" fill="url(#d)"/>
    <path d="m 95.0625 31.984375 l -38.300781 37.675781 c -0.980469 -0.996094 -0.972657 -2.597656 0.03125 -3.570312 l 35.316406 -34.226563 c 1.003906 -0.976562 2.1875 -0.65625 2.953125 0.121094 z m 0 0" fill="url(#e)"/>
    <g clip-path="url(#r)" mask="url(#n)">
        <g clip-path="url(#q)" mask="url(#o)">
            <path d="m 128 80.640625 v 47.359375 h -128 v -47.359375 z m 0 0" fill="url(#p)"/>
            <path d="m 13.308594 80.640625 l 47.355468 47.359375 h 21.214844 l -47.359375 -47.359375 z m 42.421875 0 l 47.363281 47.359375 h 21.214844 l -47.363282 -47.359375 z m 42.429687 0 l 29.839844 29.839844 v -21.210938 l -8.628906 -8.628906 z m -98.160156 7.90625 v 21.214844 l 18.238281 18.238281 h 21.214844 z m 0 0"/>
        </g>
    </g>
</svg>
