<?xml version="1.0" encoding="UTF-8"?>
<svg height="128px" viewBox="0 0 128 128" width="128px" xmlns="http://www.w3.org/2000/svg" xmlns:xlink="http://www.w3.org/1999/xlink">
    <defs>
        <filter id="a" height="100%" width="100%" x="0%" y="0%">
            <feColorMatrix in="SourceGraphic" type="matrix" values="0 0 0 0 1 0 0 0 0 1 0 0 0 0 1 0 0 0 1 0"/>
        </filter>
        <mask id="b">
            <g filter="url(#a)">
                <rect fill-opacity="0.1" height="128" width="128"/>
            </g>
        </mask>
        <mask id="c">
            <g filter="url(#a)">
                <rect fill-opacity="0.3" height="128" width="128"/>
            </g>
        </mask>
        <mask id="d">
            <g filter="url(#a)">
                <rect fill-opacity="0.3" height="128" width="128"/>
            </g>
        </mask>
        <linearGradient id="e" gradientTransform="matrix(0.386965 0.446394 -0.446394 0.386965 82.350988 -67.531811)" gradientUnits="userSpaceOnUse" x1="143.607788" x2="141.011398" y1="139.418365" y2="95.803307">
            <stop offset="0" stop-color="#b3b3b3"/>
            <stop offset="1" stop-color="#e6e6e6"/>
        </linearGradient>
        <linearGradient id="f" gradientTransform="matrix(0.386965 0.446394 -0.446394 0.386965 82.350988 -67.531811)" gradientUnits="userSpaceOnUse" x1="102.540459" x2="144.827225" y1="86.852005" y2="185.409195">
            <stop offset="0" stop-color="#ffffff" stop-opacity="0.7251"/>
            <stop offset="1" stop-color="#ffffff" stop-opacity="0"/>
        </linearGradient>
        <mask id="g">
            <g filter="url(#a)">
                <rect fill-opacity="0.1" height="128" width="128"/>
            </g>
        </mask>
        <clipPath id="h">
            <rect height="152" width="192"/>
        </clipPath>
        <g id="i" clip-path="url(#h)">
            <path d="m 72.277344 26.675781 c -28.332032 0 -51.300782 22.964844 -51.300782 51.296875 c 0.011719 0.371094 0.023438 0.742188 0.039063 1.113282 c 0.433594 -28.007813 23.25 -50.492188 51.261719 -50.511719 c 27.886718 0.015625 50.65625 22.304687 51.261718 50.1875 c 0.015626 -0.261719 0.027344 -0.527344 0.039063 -0.789063 c 0 -28.332031 -22.96875 -51.296875 -51.300781 -51.296875 z m 0 0"/>
        </g>
        <mask id="j">
            <g filter="url(#a)">
                <rect fill-opacity="0.3" height="128" width="128"/>
            </g>
        </mask>
        <clipPath id="k">
            <rect height="152" width="192"/>
        </clipPath>
        <g id="l" clip-path="url(#k)">
            <path d="m 119.871094 78.308594 v 0.210937 c 0 0.574219 -0.464844 1.035157 -1.035156 1.035157 h -6.546876 c -0.570312 0 -1.035156 -0.460938 -1.035156 -1.035157 v -0.210937 c 0 -0.574219 0.464844 -1.035156 1.035156 -1.035156 h 6.546876 c 0.570312 0 1.035156 0.460937 1.035156 1.035156 z m 0 0"/>
            <path d="m 33.664062 78.308594 v 0.210937 c 0 0.574219 -0.464843 1.035157 -1.039062 1.035157 h -6.542969 c -0.570312 0 -1.035156 -0.460938 -1.035156 -1.035157 v -0.210937 c 0 -0.574219 0.464844 -1.035156 1.035156 -1.035156 h 6.542969 c 0.574219 0 1.039062 0.460937 1.039062 1.035156 z m 0 0"/>
            <path d="m 72.792969 41.003906 h -0.59375 c -0.746094 0 -1.347657 -0.601562 -1.347657 -1.34375 v -8.507812 c 0 -0.746094 0.601563 -1.347656 1.347657 -1.347656 h 0.59375 c 0.746093 0 1.347656 0.601562 1.347656 1.347656 v 8.507812 c 0 0.742188 -0.601563 1.34375 -1.347656 1.34375 z m 0 0"/>
            <path d="m 72.601562 125.84375 h -0.210937 c -0.574219 0 -1.035156 -0.464844 -1.035156 -1.035156 v -6.542969 c 0 -0.574219 0.460937 -1.039063 1.035156 -1.039063 h 0.210937 c 0.574219 0 1.035157 0.464844 1.035157 1.039063 v 6.542969 c 0 0.570312 -0.460938 1.035156 -1.035157 1.035156 z m 0 0"/>
        </g>
        <mask id="m">
            <g filter="url(#a)">
                <rect fill-opacity="0.3" height="128" width="128"/>
            </g>
        </mask>
        <clipPath id="n">
            <rect height="152" width="192"/>
        </clipPath>
        <g id="o" clip-path="url(#n)">
            <path d="m 102.617188 49.910156 c 0.792968 0.804688 1.042968 1.941406 0.074218 2.933594 l -32.230468 32.898438 c -1.460938 1.488281 -3.761719 0.542968 -4.734376 -0.445313 c -0.976562 -0.992187 -2.109374 -3.542969 -0.550781 -4.925781 l 34.507813 -30.582032 c 1.039062 -0.921874 2.175781 -0.652343 2.933594 0.121094 z m 0 0"/>
        </g>
        <clipPath id="p">
            <rect height="128" width="128"/>
        </clipPath>
        <clipPath id="q">
            <rect height="128" width="128"/>
        </clipPath>
        <mask id="r">
            <g clip-path="url(#q)" filter="url(#a)">
                <g clip-path="url(#p)">
                    <path d="m 41.507812 114.019531 h 44.984376 c 0.835937 0 1.511718 0.902344 1.511718 2.019531 v 6.429688 c 0 1.121094 -0.675781 2.042969 -1.511718 2.019531 l -22.882813 -0.570312 l -22.101563 0.570312 c -0.835937 0.023438 -1.511718 -0.898437 -1.511718 -2.019531 v -6.429688 c 0 -1.117187 0.675781 -2.019531 1.511718 -2.019531 z m 0 0"/>
                    <path d="m 41.558594 114.386719 h 44.882812 c 0.835938 0 1.507813 0.804687 1.507813 1.804687 v 5.75 c 0 1 -0.671875 1.824219 -1.507813 1.804688 l -22.832031 -0.507813 l -22.050781 0.507813 c -0.835938 0.019531 -1.507813 -0.804688 -1.507813 -1.804688 v -5.75 c 0 -1 0.671875 -1.804687 1.507813 -1.804687 z m 0 0" fill="#3d3846"/>
                    <path d="m 121.277344 63.875 c 0 31.480469 -25.519532 57 -57 57 c -31.480469 0 -57 -25.519531 -57 -57 s 25.519531 -57 57 -57 c 31.480468 0 57 25.519531 57 57 z m 0 0" fill="#d5d3cf"/>
                    <path d="m 64.277344 8.773438 c 29.382812 0 53.199218 23.820312 53.199218 53.199218 v 1.902344 c 0 29.378906 -23.816406 53.199219 -53.199218 53.199219 c -29.382813 0 -53.199219 -23.820313 -53.199219 -53.199219 v -1.902344 c 0 -29.378906 23.816406 -53.199218 53.199219 -53.199218 z m 0 0" fill="#d5d3cf"/>
                    <path d="m 121.277344 61.972656 c 0 31.480469 -25.519532 57 -57 57 c -31.480469 0 -57 -25.519531 -57 -57 c 0 -31.480468 25.519531 -57 57 -57 c 31.480468 0 57 25.519532 57 57 z m 0 0" fill="#f6f5f4"/>
                    <path d="m 115.578125 61.972656 c 0 28.332032 -22.96875 51.300782 -51.300781 51.300782 c -28.332032 0 -51.300782 -22.96875 -51.300782 -51.300782 c 0 -28.332031 22.96875 -51.296875 51.300782 -51.296875 c 28.332031 0 51.300781 22.964844 51.300781 51.296875 z m 0 0" fill="#342f3d"/>
                    <path d="m 99.90625 61.972656 c 0 19.675782 -15.953125 35.628906 -35.628906 35.628906 c -19.675782 0 -35.628906 -15.953124 -35.628906 -35.628906 c 0 -19.675781 15.953124 -35.625 35.628906 -35.625 c 19.675781 0 35.628906 15.949219 35.628906 35.625 z m 0 0" fill="#312b3b"/>
                    <path d="m 99.035156 61.972656 c 0 19.199219 -15.5625 34.761719 -34.757812 34.761719 c -19.195313 0 -34.757813 -15.5625 -34.757813 -34.761719 c 0 -19.195312 15.5625 -34.757812 34.757813 -34.757812 c 19.195312 0 34.757812 15.5625 34.757812 34.757812 z m 0 0" fill="#241f31"/>
                    <use mask="url(#g)" transform="matrix(1 0 0 1 -8 -16)" xlink:href="#i"/>
                    <use mask="url(#j)" transform="matrix(1 0 0 1 -8 -16)" xlink:href="#l"/>
                    <path d="m 111.757812 61.761719 v 0.214843 c 0 0.570313 -0.464843 1.035157 -1.039062 1.035157 h -6.542969 c -0.570312 0 -1.035156 -0.464844 -1.035156 -1.035157 v -0.214843 c 0 -0.570313 0.464844 -1.035157 1.035156 -1.035157 h 6.542969 c 0.574219 0 1.039062 0.464844 1.039062 1.035157 z m 0 0" fill="#e1e0de"/>
                    <path d="m 25.546875 61.761719 v 0.214843 c 0 0.570313 -0.464844 1.035157 -1.035156 1.035157 h -6.542969 c -0.574219 0 -1.039062 -0.464844 -1.039062 -1.035157 v -0.214843 c 0 -0.570313 0.464843 -1.035157 1.039062 -1.035157 h 6.542969 c 0.570312 0 1.035156 0.464844 1.035156 1.035157 z m 0 0" fill="#e1e0de"/>
                    <path d="m 64.679688 24.460938 h -0.59375 c -0.746094 0 -1.347657 -0.601563 -1.347657 -1.347657 v -8.507812 c 0 -0.742188 0.601563 -1.34375 1.347657 -1.34375 h 0.59375 c 0.742187 0 1.347656 0.601562 1.347656 1.34375 v 8.507812 c 0 0.746094 -0.605469 1.347657 -1.347656 1.347657 z m 0 0" fill="#f66151"/>
                    <path d="m 64.488281 109.300781 h -0.210937 c -0.574219 0 -1.039063 -0.464843 -1.039063 -1.039062 v -6.542969 c 0 -0.570312 0.464844 -1.035156 1.039063 -1.035156 h 0.210937 c 0.570313 0 1.035157 0.464844 1.035157 1.035156 v 6.542969 c 0 0.574219 -0.464844 1.039062 -1.035157 1.039062 z m 0 0" fill="#e1e0de"/>
                    <use mask="url(#m)" transform="matrix(1 0 0 1 -8 -16)" xlink:href="#o"/>
                    <path d="m 94.785156 31.964844 c 0.789063 0.804687 1.027344 1.929687 0.070313 2.933594 l -32.785157 34.503906 c -1.4375 1.511718 -3.761718 0.542968 -4.734374 -0.449219 c -0.976563 -0.988281 -2.085938 -3.511719 -0.550782 -4.921875 l 35.066406 -32.1875 c 1.023438 -0.9375 2.171876 -0.648438 2.933594 0.121094 z m 0 0" fill="url(#e)"/>
                    <path d="m 94.785156 31.964844 l -37.449218 36.988281 c -0.976563 -0.988281 -2.085938 -3.511719 -0.550782 -4.921875 l 35.066406 -32.1875 c 1.023438 -0.9375 2.171876 -0.648438 2.933594 0.121094 z m 0 0" fill="url(#f)"/>
                </g>
            </g>
        </mask>
        <mask id="s">
            <g filter="url(#a)">
                <rect fill-opacity="0.8" height="128" width="128"/>
            </g>
        </mask>
        <linearGradient id="t" gradientTransform="matrix(0 0.37 -0.98462 0 295.38501 -30.360001)" gradientUnits="userSpaceOnUse" x1="300" x2="428" y1="235" y2="235">
            <stop offset="0" stop-color="#f9f06b"/>
            <stop offset="1" stop-color="#f5c211"/>
        </linearGradient>
        <clipPath id="u">
            <rect height="128" width="128"/>
        </clipPath>
        <clipPath id="v">
            <rect height="128" width="128"/>
        </clipPath>
    </defs>
    <path d="m 41.507812 114.019531 h 44.984376 c 0.835937 0 1.511718 0.902344 1.511718 2.019531 v 6.429688 c 0 1.121094 -0.675781 2.042969 -1.511718 2.019531 l -22.882813 -0.570312 l -22.101563 0.570312 c -0.835937 0.023438 -1.511718 -0.898437 -1.511718 -2.019531 v -6.429688 c 0 -1.117187 0.675781 -2.019531 1.511718 -2.019531 z m 0 0"/>
    <path d="m 41.558594 114.386719 h 44.882812 c 0.835938 0 1.507813 0.804687 1.507813 1.804687 v 5.75 c 0 1 -0.671875 1.824219 -1.507813 1.804688 l -22.832031 -0.507813 l -22.050781 0.507813 c -0.835938 0.019531 -1.507813 -0.804688 -1.507813 -1.804688 v -5.75 c 0 -1 0.671875 -1.804687 1.507813 -1.804687 z m 0 0" fill="#3d3846"/>
    <path d="m 121.277344 63.875 c 0 31.480469 -25.519532 57 -57 57 c -31.480469 0 -57 -25.519531 -57 -57 s 25.519531 -57 57 -57 c 31.480468 0 57 25.519531 57 57 z m 0 0" fill="#d5d3cf"/>
    <path d="m 64.277344 8.773438 c 29.382812 0 53.199218 23.820312 53.199218 53.199218 v 1.902344 c 0 29.378906 -23.816406 53.199219 -53.199218 53.199219 c -29.382813 0 -53.199219 -23.820313 -53.199219 -53.199219 v -1.902344 c 0 -29.378906 23.816406 -53.199218 53.199219 -53.199218 z m 0 0" fill="#d5d3cf"/>
    <path d="m 121.277344 61.972656 c 0 31.480469 -25.519532 57 -57 57 c -31.480469 0 -57 -25.519531 -57 -57 c 0 -31.480468 25.519531 -57 57 -57 c 31.480468 0 57 25.519532 57 57 z m 0 0" fill="#f6f5f4"/>
    <path d="m 115.578125 61.972656 c 0 28.332032 -22.96875 51.300782 -51.300781 51.300782 c -28.332032 0 -51.300782 -22.96875 -51.300782 -51.300782 c 0 -28.332031 22.96875 -51.296875 51.300782 -51.296875 c 28.332031 0 51.300781 22.964844 51.300781 51.296875 z m 0 0" fill="#342f3d"/>
    <path d="m 99.90625 61.972656 c 0 19.675782 -15.953125 35.628906 -35.628906 35.628906 c -19.675782 0 -35.628906 -15.953124 -35.628906 -35.628906 c 0 -19.675781 15.953124 -35.625 35.628906 -35.625 c 19.675781 0 35.628906 15.949219 35.628906 35.625 z m 0 0" fill="#312b3b"/>
    <path d="m 99.035156 61.972656 c 0 19.199219 -15.5625 34.761719 -34.757812 34.761719 c -19.195313 0 -34.757813 -15.5625 -34.757813 -34.761719 c 0 -19.195312 15.5625 -34.757812 34.757813 -34.757812 c 19.195312 0 34.757812 15.5625 34.757812 34.757812 z m 0 0" fill="#241f31"/>
    <use mask="url(#b)" transform="matrix(1 0 0 1 -8 -16)" xlink:href="#i"/>
    <use mask="url(#c)" transform="matrix(1 0 0 1 -8 -16)" xlink:href="#l"/>
    <path d="m 111.757812 61.761719 v 0.214843 c 0 0.570313 -0.464843 1.035157 -1.039062 1.035157 h -6.542969 c -0.570312 0 -1.035156 -0.464844 -1.035156 -1.035157 v -0.214843 c 0 -0.570313 0.464844 -1.035157 1.035156 -1.035157 h 6.542969 c 0.574219 0 1.039062 0.464844 1.039062 1.035157 z m 0 0" fill="#e1e0de"/>
    <path d="m 25.546875 61.761719 v 0.214843 c 0 0.570313 -0.464844 1.035157 -1.035156 1.035157 h -6.542969 c -0.574219 0 -1.039062 -0.464844 -1.039062 -1.035157 v -0.214843 c 0 -0.570313 0.464843 -1.035157 1.039062 -1.035157 h 6.542969 c 0.570312 0 1.035156 0.464844 1.035156 1.035157 z m 0 0" fill="#e1e0de"/>
    <path d="m 64.679688 24.460938 h -0.59375 c -0.746094 0 -1.347657 -0.601563 -1.347657 -1.347657 v -8.507812 c 0 -0.742188 0.601563 -1.34375 1.347657 -1.34375 h 0.59375 c 0.742187 0 1.347656 0.601562 1.347656 1.34375 v 8.507812 c 0 0.746094 -0.605469 1.347657 -1.347656 1.347657 z m 0 0" fill="#f66151"/>
    <path d="m 64.488281 109.300781 h -0.210937 c -0.574219 0 -1.039063 -0.464843 -1.039063 -1.039062 v -6.542969 c 0 -0.570312 0.464844 -1.035156 1.039063 -1.035156 h 0.210937 c 0.570313 0 1.035157 0.464844 1.035157 1.035156 v 6.542969 c 0 0.574219 -0.464844 1.039062 -1.035157 1.039062 z m 0 0" fill="#e1e0de"/>
    <use mask="url(#d)" transform="matrix(1 0 0 1 -8 -16)" xlink:href="#o"/>
    <path d="m 94.785156 31.964844 c 0.789063 0.804687 1.027344 1.929687 0.070313 2.933594 l -32.785157 34.503906 c -1.4375 1.511718 -3.761718 0.542968 -4.734374 -0.449219 c -0.976563 -0.988281 -2.085938 -3.511719 -0.550782 -4.921875 l 35.066406 -32.1875 c 1.023438 -0.9375 2.171876 -0.648438 2.933594 0.121094 z m 0 0" fill="url(#e)"/>
    <path d="m 94.785156 31.964844 l -37.449218 36.988281 c -0.976563 -0.988281 -2.085938 -3.511719 -0.550782 -4.921875 l 35.066406 -32.1875 c 1.023438 -0.9375 2.171876 -0.648438 2.933594 0.121094 z m 0 0" fill="url(#f)"/>
    <g clip-path="url(#v)" mask="url(#r)">
        <g clip-path="url(#u)" mask="url(#s)">
            <path d="m 128 80.640625 v 47.359375 h -128 v -47.359375 z m 0 0" fill="url(#t)"/>
            <path d="m 13.308594 80.640625 l 47.355468 47.359375 h 21.214844 l -47.359375 -47.359375 z m 42.421875 0 l 47.363281 47.359375 h 21.214844 l -47.363282 -47.359375 z m 42.429687 0 l 29.839844 29.839844 v -21.210938 l -8.628906 -8.628906 z m -98.160156 7.90625 v 21.214844 l 18.238281 18.238281 h 21.214844 z m 0 0"/>
        </g>
    </g>
</svg>
